# xmcd
#
# Track frame offsets:
#	150
#	15044
#	27958
#	43182
#	57761
#	72336
#	81599
#	96796
#	108991
#	126208
#	136787
#	153769
#	169278
#	185065
#	196967
#
# Disc length: 2752 seconds
#
# Revision: 2
# Processed by: cddbd v1.5.2PL0 Copyright (c) Steve Scherf et al.
# Submitted via: audiograbber 1.83.01
#
DISCID=c40abe0f
DTITLE=Harry James - The Big Band Era [CD 8)
DYEAR=2005
DGENRE=Jazz
TTITLE0=Music Makers
TTITLE1=Concerto For Trumpet
TTITLE2=Flatbush Flanagan
TTITLE3=Don't Be That Way
TTITLE4=September Song from ''Knickerbocker Holiday''
TTITLE5=There They Go
TTITLE6=You Turned The Tables On Me
TTITLE7=The Arrival
TTITLE8=Six, Two And Even
TTITLE9='Cept February, Which Has 28
TTITLE10=Things Ain't What They Used To Be
TTITLE11=I May Be Wrong
TTITLE12=Lover
TTITLE13=Snooty Fruity
TTITLE14=Bells
EXTD=
EXTT0=
EXTT1=
EXTT2=
EXTT3=
EXTT4=
EXTT5=
EXTT6=
EXTT7=
EXTT8=
EXTT9=
EXTT10=
EXTT11=
EXTT12=
EXTT13=
EXTT14=
PLAYORDER=
